<?xml version="1.0" encoding="utf-8"?>
<!-- Generator: Adobe Illustrator 16.0.0, SVG Export Plug-In . SVG Version: 6.00 Build 0)  -->
<!DOCTYPE svg PUBLIC "-//W3C//DTD SVG 1.1//EN" "http://www.w3.org/Graphics/SVG/1.1/DTD/svg11.dtd">
<svg version="1.1" id="Layer_1" xmlns="http://www.w3.org/2000/svg" xmlns:xlink="http://www.w3.org/1999/xlink" x="0px" y="0px"
	 width="26px" height="26px" viewBox="147 147 26 26" enable-background="new 147 147 26 26" xml:space="preserve">
<ellipse fill="#007BFF" cx="160.02" cy="160" rx="13.021" ry="13"/>
<path fill="#FFFFFF" d="M168.979,157.128c-5.04-4.655-12.879-4.654-17.918,0c-0.189,0.175-0.192,0.471-0.01,0.653l0.974,0.965
	c0.175,0.172,0.457,0.177,0.638,0.012c4.151-3.798,10.563-3.799,14.716,0c0.181,0.165,0.462,0.16,0.636-0.012l0.977-0.965
	C169.172,157.599,169.171,157.303,168.979,157.128L168.979,157.128z M160.02,162.729c-1.006,0-1.821,0.812-1.821,1.815
	c0,1.007,0.814,1.816,1.821,1.816s1.822-0.81,1.822-1.816C161.842,163.541,161.026,162.729,160.02,162.729z M165.786,160.352
	c-3.278-2.895-8.256-2.891-11.533,0c-0.196,0.176-0.203,0.475-0.016,0.658l0.98,0.966c0.17,0.167,0.445,0.181,0.626,0.022
	c2.389-2.061,5.968-2.057,8.349,0c0.184,0.158,0.459,0.146,0.631-0.022l0.979-0.966
	C165.988,160.826,165.982,160.527,165.786,160.352z"/>
</svg>
